<?xml version="1.0" standalone="no"?>
<!DOCTYPE svg PUBLIC "-//W3C//DTD SVG 20010904//EN"
 "http://www.w3.org/TR/2001/REC-SVG-20010904/DTD/svg10.dtd">
<svg version="1.0" xmlns="http://www.w3.org/2000/svg"
 width="400.000000pt" height="400.000000pt" viewBox="0 0 400.000000 400.000000"
 preserveAspectRatio="xMidYMid meet">
<metadata>
Created by potrace 1.11, written by Peter Selinger 2001-2013
</metadata>
<g transform="translate(0.000000,400.000000) scale(0.100000,-0.100000)"
fill="#000000" stroke="none">
<path d="M1871 3760 c-50 -33 -62 -36 -71 -25 -17 21 -69 45 -96 45 -24 0
-104 -39 -104 -51 0 -12 -68 -22 -87 -13 -10 4 -20 8 -23 9 -3 1 -13 5 -23 10
-32 14 -126 0 -157 -23 -37 -27 -81 -28 -105 -2 -13 15 -31 20 -67 20 -54 0
-77 -10 -130 -59 l-37 -34 -58 18 c-32 9 -67 22 -78 28 -13 7 -20 6 -23 -2 -2
-6 -9 -11 -16 -11 -6 0 -32 -20 -57 -44 -38 -37 -50 -42 -77 -38 -18 2 -35 8
-38 13 -8 13 -116 11 -147 -3 -15 -7 -27 -21 -27 -30 0 -10 -4 -18 -10 -18 -5
0 -10 -13 -10 -28 0 -15 -5 -33 -12 -40 -17 -17 -18 -586 0 -603 6 -7 12 -28
12 -45 0 -18 4 -35 9 -38 5 -4 12 -29 16 -56 4 -27 11 -52 16 -56 5 -3 9 -16
9 -30 0 -13 5 -24 10 -24 6 0 10 -7 10 -15 0 -8 4 -23 9 -33 6 -9 22 -44 37
-77 16 -33 31 -62 34 -65 3 -3 13 -21 24 -40 48 -90 71 -126 88 -141 10 -9 18
-20 18 -24 0 -4 9 -18 19 -32 21 -25 18 -47 -7 -72 -11 -11 -13 -37 -10 -113
2 -55 8 -102 13 -106 6 -4 16 -18 23 -32 24 -46 53 -73 95 -86 9 -4 17 -10 17
-15 0 -5 9 -9 20 -9 11 0 20 -5 20 -11 0 -7 33 -10 99 -8 l99 3 68 -71 c38
-39 74 -77 79 -85 6 -8 24 -34 40 -58 49 -70 64 -94 72 -110 3 -8 9 -17 12
-20 13 -11 41 -69 41 -84 0 -9 5 -16 10 -16 18 0 10 -26 -15 -50 -14 -13 -25
-29 -25 -37 0 -7 -3 -13 -8 -13 -11 0 -30 -49 -38 -97 -8 -50 -52 -106 -102
-130 -20 -9 -43 -23 -50 -30 -7 -7 -19 -13 -26 -13 -6 0 -18 -9 -26 -20 -8
-11 -18 -20 -23 -20 -4 0 -33 -19 -64 -42 -31 -24 -68 -52 -82 -63 -58 -43
-271 -271 -271 -289 0 -12 -43 -55 -50 -51 -4 3 -15 -4 -25 -15 -10 -11 -22
-20 -28 -20 -12 0 -177 -166 -177 -178 0 -5 -10 -17 -21 -28 -12 -10 -25 -28
-30 -39 -10 -23 -31 -57 -39 -65 -16 -14 -50 -70 -44 -70 5 0 3 -5 -4 -12 -7
-7 -12 -16 -12 -20 0 -4 356 -8 790 -8 658 0 790 2 790 14 0 13 -20 93 -73
296 -14 52 -23 97 -21 99 1 2 20 -1 40 -6 35 -8 38 -12 54 -69 18 -68 53 -129
80 -144 73 -39 201 46 301 199 34 53 63 65 91 38 7 -8 38 -106 68 -220 43
-163 59 -207 71 -207 14 0 15 6 9 33 -20 84 -40 162 -69 271 -30 112 -31 119
-14 132 31 23 52 16 72 -24 37 -70 139 -152 192 -152 30 0 84 35 111 72 20 29
22 30 29 12 30 -77 70 -188 84 -234 9 -30 21 -67 27 -82 l10 -28 409 0 c256 0
409 4 409 10 0 5 -12 31 -27 57 -14 26 -31 57 -37 68 -6 11 -13 22 -16 25 -8
8 -28 42 -47 80 -9 19 -28 46 -40 60 -13 14 -23 29 -23 35 0 6 -11 19 -25 29
-14 10 -25 24 -25 30 0 13 -131 146 -144 146 -4 0 -66 59 -137 130 -71 72
-136 130 -144 130 -8 0 -15 4 -15 9 0 5 -8 12 -18 15 -10 4 -27 14 -38 24 -23
20 -92 61 -116 69 -10 3 -18 9 -18 14 0 5 -6 9 -14 9 -8 0 -34 23 -58 51 -24
28 -73 82 -110 121 -38 38 -68 74 -68 79 0 5 15 24 34 42 18 17 39 48 45 68 6
20 22 41 34 47 12 6 108 13 220 15 127 3 203 9 210 16 6 6 23 11 38 11 15 0
31 5 34 10 3 6 13 10 22 10 44 0 157 83 175 129 13 35 17 90 7 97 -5 3 -9 12
-9 21 0 9 -16 38 -35 64 -19 27 -35 53 -35 58 0 5 -7 15 -16 22 -9 7 -20 22
-25 34 -5 11 -13 27 -17 35 -26 46 -32 63 -32 94 0 36 24 59 74 72 14 3 26 10
26 15 0 5 6 9 13 9 17 0 127 110 127 127 0 7 5 13 10 13 6 0 10 7 10 15 0 8 5
15 10 15 6 0 10 11 10 24 0 14 5 28 10 31 13 8 13 169 1 193 -5 9 -17 34 -26
55 -9 21 -37 63 -62 93 -37 47 -44 60 -37 82 4 15 7 30 6 35 -1 4 2 7 8 7 5 0
10 15 10 34 0 19 5 38 10 41 6 3 10 26 10 50 0 24 5 47 10 50 6 3 10 44 10 90
0 46 -4 87 -10 90 -5 3 -10 19 -10 36 0 16 -4 29 -10 29 -21 0 -8 37 25 72 19
20 35 44 35 52 0 9 5 16 10 16 6 0 10 6 10 14 0 7 7 27 15 42 9 17 15 56 15
95 0 83 -22 109 -93 109 -25 0 -49 -4 -52 -10 -13 -21 -49 -8 -97 35 -38 34
-58 45 -83 45 -19 0 -37 -4 -40 -10 -13 -21 -73 -11 -101 16 -26 26 -28 27
-124 21 -89 -5 -99 -4 -116 14 -23 25 -71 49 -100 49 -13 0 -40 -9 -60 -21
-20 -11 -40 -16 -43 -12 -3 5 -22 21 -42 36 -35 26 -96 37 -113 20 -4 -5 -31
-13 -59 -19 -49 -10 -54 -9 -94 18 -55 37 -119 38 -171 3 -49 -33 -91 -32
-144 5 -65 45 -88 45 -157 0z m386 -410 c126 -5 271 -14 323 -20 52 -6 138
-15 190 -20 185 -20 337 -44 500 -82 103 -24 115 -30 137 -71 24 -47 21 -245
-7 -352 -11 -43 -24 -83 -28 -87 -4 -4 -29 -1 -56 7 -97 29 -247 16 -337 -30
-77 -40 -160 -141 -189 -228 -10 -33 -15 -37 -33 -30 -12 4 -68 8 -123 8
l-102 0 -4 80 c-6 103 -33 160 -113 240 -144 145 -359 177 -555 81 -114 -55
-220 -185 -237 -291 -5 -31 -10 -36 -47 -46 -78 -22 -211 -59 -249 -71 -44
-13 -51 -9 -39 23 19 48 31 97 58 219 24 113 27 146 28 335 0 116 -3 231 -8
258 l-7 47 33 0 c18 0 69 5 113 10 66 9 274 21 482 29 24 0 145 -3 270 -9z m8
-529 c102 -50 178 -131 205 -217 44 -145 15 -278 -86 -378 -127 -128 -318
-157 -492 -76 -72 33 -149 107 -180 172 -83 170 -57 310 81 433 84 76 173 105
312 102 80 -2 98 -6 160 -36z m1065 -153 c121 -56 180 -148 180 -283 0 -137
-61 -234 -185 -294 -28 -13 -58 -28 -67 -33 -26 -12 -183 -10 -213 4 -20 9
-25 18 -25 49 0 46 -30 117 -61 146 -13 12 -51 34 -83 48 l-58 26 7 67 c12
109 61 188 156 248 95 59 248 69 349 22z m-1705 -244 c14 -96 101 -224 190
-282 97 -62 253 -93 372 -72 133 22 264 127 318 255 25 59 30 64 71 75 72 20
204 -9 204 -44 0 -13 -12 -16 -57 -16 -32 0 -68 -3 -80 -6 -24 -7 -32 -34 -10
-34 6 -1 58 -5 115 -10 160 -14 222 -62 222 -171 0 -77 -24 -118 -85 -149 -41
-20 -63 -25 -120 -23 -38 1 -92 9 -120 17 -27 9 -63 16 -79 16 -28 0 -28 -1
-12 -19 35 -38 191 -69 290 -57 42 6 63 15 96 43 23 20 46 47 51 59 9 25 29
30 58 15 22 -12 63 -19 119 -20 l42 -1 0 -45 c0 -54 12 -83 67 -162 74 -106
96 -158 90 -216 -5 -56 -18 -70 -102 -112 -103 -51 -173 -60 -495 -60 -294 0
-368 6 -540 42 -41 8 -93 19 -115 23 -22 3 -56 12 -75 18 -19 6 -73 23 -120
37 -109 33 -140 45 -140 57 0 5 11 21 25 36 39 42 30 66 -16 42 -26 -14 -79
-109 -79 -141 0 -34 27 -60 41 -38 5 8 9 22 9 32 0 21 7 21 56 1 142 -60 495
-135 747 -159 64 -6 67 -8 67 -33 0 -19 -16 -41 -59 -82 -32 -30 -61 -64 -65
-74 -3 -10 -11 -76 -17 -145 -12 -155 -21 -190 -57 -224 -25 -24 -34 -27 -69
-21 -30 4 -50 1 -80 -15 l-40 -20 -38 54 c-47 69 -108 125 -166 153 -41 20
-50 21 -85 10 -35 -12 -73 -51 -109 -112 -9 -16 -13 -16 -55 -1 -88 30 -150
67 -203 118 -54 52 -55 52 -61 126 -12 135 -79 301 -183 450 -54 78 -183 231
-195 231 -18 0 -7 29 17 44 14 9 25 23 25 31 0 24 -21 28 -43 7 -118 -107
-322 -62 -383 84 -8 19 -14 59 -14 91 0 104 67 180 179 204 66 14 111 3 188
-47 29 -19 56 -34 58 -34 9 0 5 36 -5 46 -6 6 2 27 25 61 19 29 35 59 35 67 0
23 45 53 91 60 23 4 47 10 53 14 15 10 207 70 227 71 12 1 19 -11 24 -45z m2
-1544 c61 -42 110 -66 161 -79 l42 -12 -7 -42 c-5 -23 -8 -99 -8 -170 0 -127
0 -127 -23 -127 -50 0 -79 35 -110 133 -17 50 -49 143 -71 206 -23 63 -41 116
-41 118 0 8 15 1 57 -27z"/>
<path d="M2003 3199 c-66 -8 -141 -36 -159 -60 -6 -8 -14 -30 -18 -50 -5 -31
-2 -42 21 -69 l27 -33 250 7 c141 4 256 12 262 17 21 18 27 84 10 117 -30 57
-56 65 -256 75 -41 2 -103 1 -137 -4z"/>
<path d="M3010 3087 c-25 -12 -53 -59 -65 -109 -5 -21 -2 -30 18 -42 32 -22
114 -42 244 -62 l108 -16 27 32 c49 60 45 136 -9 163 -35 18 -193 47 -253 47
-25 0 -56 -6 -70 -13z"/>
<path d="M1942 2514 c-31 -21 -31 -87 0 -108 32 -22 55 -20 83 9 31 30 32 68
3 95 -26 24 -56 26 -86 4z"/>
<path d="M3160 2382 c-45 -13 -54 -82 -15 -108 21 -14 30 -14 55 -4 72 30 34
134 -40 112z"/>
<path d="M883 2095 c-32 -13 -58 -47 -46 -59 11 -11 33 -6 33 8 0 14 37 29 51
20 4 -2 7 -22 7 -44 0 -43 33 -100 59 -100 8 0 13 3 11 8 -28 53 -37 86 -32
108 9 35 28 40 63 15 36 -26 51 -27 51 -2 0 26 -74 61 -126 61 -21 -1 -53 -7
-71 -15z"/>
</g>
</svg>
